<mxfile host="app.diagrams.net" modified="2024-04-17T12:38:27.466Z" agent="Mozilla/5.0 (Windows NT 10.0; Win64; x64) AppleWebKit/537.36 (KHTML, like Gecko) Chrome/123.0.0.0 Safari/537.36" etag="VAvNJ3b4vLwEqtwG30kv" version="24.2.5" type="github">
  <diagram name="Page-1" id="wZeLdjloJ8ugwCmWWQ-Q">
    <mxGraphModel dx="1320" dy="952" grid="1" gridSize="10" guides="1" tooltips="1" connect="1" arrows="1" fold="1" page="1" pageScale="1" pageWidth="850" pageHeight="1100" math="0" shadow="0">
      <root>
        <mxCell id="0" />
        <mxCell id="1" parent="0" />
        <mxCell id="MPMv5W8nkfvWZwdIoHCz-3" style="edgeStyle=none;curved=1;rounded=0;orthogonalLoop=1;jettySize=auto;html=1;entryX=0.5;entryY=0;entryDx=0;entryDy=0;fontSize=12;startSize=8;endSize=8;" parent="1" source="MPMv5W8nkfvWZwdIoHCz-1" target="MPMv5W8nkfvWZwdIoHCz-2" edge="1">
          <mxGeometry relative="1" as="geometry" />
        </mxCell>
        <mxCell id="MPMv5W8nkfvWZwdIoHCz-1" value="Start" style="rounded=1;whiteSpace=wrap;html=1;fillColor=#d5e8d4;strokeColor=#82b366;" parent="1" vertex="1">
          <mxGeometry x="161.25" y="30" width="120" height="60" as="geometry" />
        </mxCell>
        <mxCell id="MPMv5W8nkfvWZwdIoHCz-28" style="edgeStyle=none;curved=1;rounded=0;orthogonalLoop=1;jettySize=auto;html=1;exitX=0.5;exitY=1;exitDx=0;exitDy=0;entryX=0.5;entryY=0;entryDx=0;entryDy=0;fontSize=12;startSize=8;endSize=8;" parent="1" source="MPMv5W8nkfvWZwdIoHCz-2" target="MPMv5W8nkfvWZwdIoHCz-31" edge="1">
          <mxGeometry relative="1" as="geometry">
            <mxPoint x="221.25" y="230" as="targetPoint" />
          </mxGeometry>
        </mxCell>
        <mxCell id="MPMv5W8nkfvWZwdIoHCz-2" value="Load question and answers, set the current round to the first round in the rounds list and initialize variables" style="rounded=0;whiteSpace=wrap;html=1;fillColor=#fff2cc;strokeColor=#d6b656;" parent="1" vertex="1">
          <mxGeometry x="126.25" y="130" width="190" height="60" as="geometry" />
        </mxCell>
        <mxCell id="MPMv5W8nkfvWZwdIoHCz-8" style="edgeStyle=none;curved=1;rounded=0;orthogonalLoop=1;jettySize=auto;html=1;exitX=0.5;exitY=1;exitDx=0;exitDy=0;entryX=0.5;entryY=0;entryDx=0;entryDy=0;fontSize=12;startSize=8;endSize=8;" parent="1" source="MPMv5W8nkfvWZwdIoHCz-5" target="MPMv5W8nkfvWZwdIoHCz-7" edge="1">
          <mxGeometry relative="1" as="geometry" />
        </mxCell>
        <mxCell id="MPMv5W8nkfvWZwdIoHCz-5" value="Wait for user input&amp;nbsp;&lt;div&gt;in the Answer Field&lt;/div&gt;" style="shape=parallelogram;perimeter=parallelogramPerimeter;whiteSpace=wrap;html=1;fixedSize=1;fillColor=#f8cecc;strokeColor=#b85450;" parent="1" vertex="1">
          <mxGeometry x="130" y="350" width="186.25" height="60" as="geometry" />
        </mxCell>
        <mxCell id="MPMv5W8nkfvWZwdIoHCz-9" style="edgeStyle=none;curved=1;rounded=0;orthogonalLoop=1;jettySize=auto;html=1;exitX=0;exitY=0.5;exitDx=0;exitDy=0;fontSize=12;startSize=8;endSize=8;entryX=0;entryY=0.5;entryDx=0;entryDy=0;" parent="1" source="MPMv5W8nkfvWZwdIoHCz-7" target="MPMv5W8nkfvWZwdIoHCz-5" edge="1">
          <mxGeometry relative="1" as="geometry">
            <mxPoint x="60" y="450" as="targetPoint" />
            <Array as="points">
              <mxPoint x="20" y="530" />
              <mxPoint x="60" y="360" />
            </Array>
          </mxGeometry>
        </mxCell>
        <mxCell id="J-DwpXoR2T52eIkeSNp9-1" value="No" style="edgeLabel;html=1;align=center;verticalAlign=middle;resizable=0;points=[];fontSize=12;" vertex="1" connectable="0" parent="MPMv5W8nkfvWZwdIoHCz-9">
          <mxGeometry x="0.0475" relative="1" as="geometry">
            <mxPoint as="offset" />
          </mxGeometry>
        </mxCell>
        <mxCell id="MPMv5W8nkfvWZwdIoHCz-12" value="" style="edgeStyle=none;curved=1;rounded=0;orthogonalLoop=1;jettySize=auto;html=1;fontSize=12;startSize=8;endSize=8;" parent="1" source="MPMv5W8nkfvWZwdIoHCz-7" target="MPMv5W8nkfvWZwdIoHCz-11" edge="1">
          <mxGeometry relative="1" as="geometry" />
        </mxCell>
        <mxCell id="J-DwpXoR2T52eIkeSNp9-2" value="Yes" style="edgeLabel;html=1;align=center;verticalAlign=middle;resizable=0;points=[];fontSize=12;" vertex="1" connectable="0" parent="MPMv5W8nkfvWZwdIoHCz-12">
          <mxGeometry x="-0.224" relative="1" as="geometry">
            <mxPoint as="offset" />
          </mxGeometry>
        </mxCell>
        <mxCell id="MPMv5W8nkfvWZwdIoHCz-7" value="Is the users answer&amp;nbsp;&lt;div&gt;a, b, c, or d?&lt;/div&gt;" style="rhombus;whiteSpace=wrap;html=1;fillColor=#ffe6cc;strokeColor=#d79b00;" parent="1" vertex="1">
          <mxGeometry x="152.5" y="510" width="147.5" height="90" as="geometry" />
        </mxCell>
        <mxCell id="MPMv5W8nkfvWZwdIoHCz-14" value="" style="edgeStyle=none;curved=1;rounded=0;orthogonalLoop=1;jettySize=auto;html=1;fontSize=12;startSize=8;endSize=8;" parent="1" source="MPMv5W8nkfvWZwdIoHCz-11" target="MPMv5W8nkfvWZwdIoHCz-13" edge="1">
          <mxGeometry relative="1" as="geometry" />
        </mxCell>
        <mxCell id="MPMv5W8nkfvWZwdIoHCz-15" value="Yes" style="edgeLabel;html=1;align=center;verticalAlign=middle;resizable=0;points=[];fontSize=12;" parent="MPMv5W8nkfvWZwdIoHCz-14" vertex="1" connectable="0">
          <mxGeometry x="0.0839" y="2" relative="1" as="geometry">
            <mxPoint as="offset" />
          </mxGeometry>
        </mxCell>
        <mxCell id="J-DwpXoR2T52eIkeSNp9-4" value="" style="edgeStyle=none;curved=1;rounded=0;orthogonalLoop=1;jettySize=auto;html=1;fontSize=12;startSize=8;endSize=8;" edge="1" parent="1" source="MPMv5W8nkfvWZwdIoHCz-11" target="J-DwpXoR2T52eIkeSNp9-3">
          <mxGeometry relative="1" as="geometry" />
        </mxCell>
        <mxCell id="J-DwpXoR2T52eIkeSNp9-6" value="No" style="edgeLabel;html=1;align=center;verticalAlign=middle;resizable=0;points=[];fontSize=12;" vertex="1" connectable="0" parent="J-DwpXoR2T52eIkeSNp9-4">
          <mxGeometry x="-0.1755" y="-1" relative="1" as="geometry">
            <mxPoint as="offset" />
          </mxGeometry>
        </mxCell>
        <mxCell id="MPMv5W8nkfvWZwdIoHCz-11" value="Is the user&#39;s answer the&amp;nbsp;&lt;div&gt;correct answer?&lt;/div&gt;" style="rhombus;whiteSpace=wrap;html=1;fillColor=#ffe6cc;strokeColor=#d79b00;" parent="1" vertex="1">
          <mxGeometry x="131.25" y="650" width="190" height="90" as="geometry" />
        </mxCell>
        <mxCell id="MPMv5W8nkfvWZwdIoHCz-19" value="" style="edgeStyle=none;curved=1;rounded=0;orthogonalLoop=1;jettySize=auto;html=1;fontSize=12;startSize=8;endSize=8;" parent="1" source="MPMv5W8nkfvWZwdIoHCz-13" target="MPMv5W8nkfvWZwdIoHCz-18" edge="1">
          <mxGeometry relative="1" as="geometry" />
        </mxCell>
        <mxCell id="MPMv5W8nkfvWZwdIoHCz-13" value="Increment correct Answers counter.&amp;nbsp;&lt;div&gt;Calculate win percentage&lt;/div&gt;" style="whiteSpace=wrap;html=1;fillColor=#fff2cc;strokeColor=#d6b656;" parent="1" vertex="1">
          <mxGeometry x="465" y="810" width="120" height="60" as="geometry" />
        </mxCell>
        <mxCell id="MPMv5W8nkfvWZwdIoHCz-21" value="" style="edgeStyle=none;curved=1;rounded=0;orthogonalLoop=1;jettySize=auto;html=1;fontSize=12;startSize=8;endSize=8;" parent="1" source="MPMv5W8nkfvWZwdIoHCz-18" target="MPMv5W8nkfvWZwdIoHCz-20" edge="1">
          <mxGeometry relative="1" as="geometry" />
        </mxCell>
        <mxCell id="MPMv5W8nkfvWZwdIoHCz-18" value="Update Correct answers label,&lt;div&gt;Update win rate label&lt;/div&gt;&lt;div&gt;Set Answerfield to nothing&lt;/div&gt;&lt;div&gt;Set Submit button text to &quot;Next Question&quot;&lt;/div&gt;&lt;div&gt;Update Answer box colours&lt;/div&gt;" style="shape=parallelogram;perimeter=parallelogramPerimeter;whiteSpace=wrap;html=1;fixedSize=1;fillColor=#f8cecc;strokeColor=#b85450;" parent="1" vertex="1">
          <mxGeometry x="402.5" y="510" width="255" height="115" as="geometry" />
        </mxCell>
        <mxCell id="MPMv5W8nkfvWZwdIoHCz-23" value="" style="edgeStyle=none;curved=1;rounded=0;orthogonalLoop=1;jettySize=auto;html=1;fontSize=12;startSize=8;endSize=8;" parent="1" source="MPMv5W8nkfvWZwdIoHCz-20" target="MPMv5W8nkfvWZwdIoHCz-22" edge="1">
          <mxGeometry relative="1" as="geometry" />
        </mxCell>
        <mxCell id="MPMv5W8nkfvWZwdIoHCz-20" value="Wait for user to click &quot;Next Question&quot; button" style="shape=parallelogram;perimeter=parallelogramPerimeter;whiteSpace=wrap;html=1;fixedSize=1;fillColor=#f8cecc;strokeColor=#b85450;" parent="1" vertex="1">
          <mxGeometry x="440" y="420" width="180" height="60" as="geometry" />
        </mxCell>
        <mxCell id="MPMv5W8nkfvWZwdIoHCz-25" value="" style="edgeStyle=none;curved=1;rounded=0;orthogonalLoop=1;jettySize=auto;html=1;fontSize=12;startSize=8;endSize=8;" parent="1" source="MPMv5W8nkfvWZwdIoHCz-22" target="MPMv5W8nkfvWZwdIoHCz-24" edge="1">
          <mxGeometry relative="1" as="geometry" />
        </mxCell>
        <mxCell id="J-DwpXoR2T52eIkeSNp9-7" value="Yes" style="edgeLabel;html=1;align=center;verticalAlign=middle;resizable=0;points=[];fontSize=12;" vertex="1" connectable="0" parent="MPMv5W8nkfvWZwdIoHCz-25">
          <mxGeometry x="-0.0571" y="1" relative="1" as="geometry">
            <mxPoint as="offset" />
          </mxGeometry>
        </mxCell>
        <mxCell id="J-DwpXoR2T52eIkeSNp9-8" style="edgeStyle=none;curved=1;rounded=0;orthogonalLoop=1;jettySize=auto;html=1;exitX=1;exitY=0.5;exitDx=0;exitDy=0;entryX=1;entryY=0.5;entryDx=0;entryDy=0;fontSize=12;startSize=8;endSize=8;" edge="1" parent="1" source="MPMv5W8nkfvWZwdIoHCz-22" target="MPMv5W8nkfvWZwdIoHCz-20">
          <mxGeometry relative="1" as="geometry">
            <Array as="points">
              <mxPoint x="710" y="400" />
            </Array>
          </mxGeometry>
        </mxCell>
        <mxCell id="J-DwpXoR2T52eIkeSNp9-9" value="No" style="edgeLabel;html=1;align=center;verticalAlign=middle;resizable=0;points=[];fontSize=12;" vertex="1" connectable="0" parent="J-DwpXoR2T52eIkeSNp9-8">
          <mxGeometry x="-0.3882" y="-18" relative="1" as="geometry">
            <mxPoint as="offset" />
          </mxGeometry>
        </mxCell>
        <mxCell id="MPMv5W8nkfvWZwdIoHCz-22" value="Has user clicked&lt;div&gt;&amp;nbsp;the button&lt;/div&gt;" style="rhombus;whiteSpace=wrap;html=1;fillColor=#ffe6cc;strokeColor=#d79b00;" parent="1" vertex="1">
          <mxGeometry x="465" y="320" width="130" height="80" as="geometry" />
        </mxCell>
        <mxCell id="MPMv5W8nkfvWZwdIoHCz-30" value="" style="edgeStyle=none;curved=1;rounded=0;orthogonalLoop=1;jettySize=auto;html=1;fontSize=12;startSize=8;endSize=8;entryX=1;entryY=0.5;entryDx=0;entryDy=0;" parent="1" source="MPMv5W8nkfvWZwdIoHCz-24" target="MPMv5W8nkfvWZwdIoHCz-31" edge="1">
          <mxGeometry relative="1" as="geometry">
            <mxPoint x="316.25" y="260" as="targetPoint" />
          </mxGeometry>
        </mxCell>
        <mxCell id="MPMv5W8nkfvWZwdIoHCz-24" value="Set the current round to the next round in the list." style="whiteSpace=wrap;html=1;fillColor=#fff2cc;strokeColor=#d6b656;" parent="1" vertex="1">
          <mxGeometry x="470" y="230" width="120" height="60" as="geometry" />
        </mxCell>
        <mxCell id="MPMv5W8nkfvWZwdIoHCz-33" value="" style="edgeStyle=none;curved=1;rounded=0;orthogonalLoop=1;jettySize=auto;html=1;fontSize=12;startSize=8;endSize=8;" parent="1" source="MPMv5W8nkfvWZwdIoHCz-31" target="MPMv5W8nkfvWZwdIoHCz-5" edge="1">
          <mxGeometry relative="1" as="geometry" />
        </mxCell>
        <mxCell id="MPMv5W8nkfvWZwdIoHCz-31" value="Update answer boxes to proper answers and colours&lt;div&gt;Update Stat counters&lt;/div&gt;&lt;div&gt;Update Question Label&lt;/div&gt;" style="shape=parallelogram;perimeter=parallelogramPerimeter;whiteSpace=wrap;html=1;fixedSize=1;fillColor=#f8cecc;strokeColor=#b85450;" parent="1" vertex="1">
          <mxGeometry x="116.25" y="220" width="210" height="60" as="geometry" />
        </mxCell>
        <mxCell id="J-DwpXoR2T52eIkeSNp9-5" value="" style="edgeStyle=none;curved=1;rounded=0;orthogonalLoop=1;jettySize=auto;html=1;fontSize=12;startSize=8;endSize=8;" edge="1" parent="1" source="J-DwpXoR2T52eIkeSNp9-3" target="MPMv5W8nkfvWZwdIoHCz-18">
          <mxGeometry relative="1" as="geometry" />
        </mxCell>
        <mxCell id="J-DwpXoR2T52eIkeSNp9-3" value="Increment incorrect Answers counter.&amp;nbsp;&lt;div&gt;Calculate win percentage&lt;/div&gt;" style="whiteSpace=wrap;html=1;fillColor=#fff2cc;strokeColor=#d6b656;" vertex="1" parent="1">
          <mxGeometry x="365" y="665" width="120" height="60" as="geometry" />
        </mxCell>
      </root>
    </mxGraphModel>
  </diagram>
</mxfile>
